<?xml version="1.0" encoding="UTF-8"?>
<svg xmlns="http://www.w3.org/2000/svg" version="1.1" viewBox="0 0 48 48">
  <defs>
    <style>
      .cls-1 {
        fill: #014025;
      }

      .cls-2 {
        fill: #1d1d1b;
        stroke: #014025;
        stroke-miterlimit: 10;
        stroke-width: 3px;
      }

      .cls-3 {
        fill: #fff;
        font-family: Broadway, Broadway;
        font-size: 29px;
      }

      .cls-4 {
        fill: #004025;
      }
    </style>
  </defs>
  <!-- Generator: Adobe Illustrator 28.7.10, SVG Export Plug-In . SVG Version: 1.2.0 Build 236)  -->
  <g>
    <g id="Capa_1">
      <line class="cls-2" x1="23.9" y1="6.6" x2="23.9" y2="12.4"/>
      <circle class="cls-1" cx="23.9" cy="24.3" r="13.1"/>
      <circle class="cls-1" cx="3.4" cy="24" r="3.3"/>
      <circle class="cls-1" cx="44.5" cy="24.3" r="3.3"/>
      <circle class="cls-1" cx="23.9" cy="44.4" r="3.3"/>
      <circle class="cls-1" cx="23.9" cy="4.1" r="3.3"/>
      <line class="cls-2" x1="6.4" y1="24" x2="12.9" y2="24"/>
      <line class="cls-2" x1="35.7" y1="24" x2="42.3" y2="24"/>
      <line class="cls-2" x1="23.9" y1="36.3" x2="23.9" y2="42.1"/>
      <line class="cls-2" x1="11.3" y1="11.2" x2="15.4" y2="15.3"/>
      <circle class="cls-1" cx="9.1" cy="38" r="3.3"/>
      <circle class="cls-4" cx="38.3" cy="8.8" r="3.3"/>
      <circle class="cls-1" cx="38.1" cy="38" r="3.3"/>
      <circle class="cls-1" cx="9.5" cy="9.4" r="3.3"/>
      <line class="cls-2" x1="31.6" y1="15.5" x2="36.3" y2="10.8"/>
      <line class="cls-2" x1="32.8" y1="32.2" x2="36.9" y2="36.3"/>
      <line class="cls-2" x1="10.5" y1="36.6" x2="15.2" y2="32"/>
      <text class="cls-3" transform="translate(15.6 33.8)"><tspan x="0" y="0">S</tspan></text>
    </g>
  </g>
</svg>